<svg id="Layer_5" data-name="Layer 5" xmlns="http://www.w3.org/2000/svg" viewBox="0 0 1974.49 1790.24">
  <defs>
    <style>.cls-1{font-size:329.12px;font-family:WorkSans-Bold, Work
      Sans;font-weight:700;}.cls-1,.cls-3{fill:#fff;}.cls-2{letter-spacing:-0.1em;}
    </style>
  </defs>
  <title>Artboard 452019_watermark</title>
  <text class="cls-1" transform="translate(93 1617.8)">pinster.io</text>
  <path class="cls-3"
        d="M1193.7,1003.64c-3.14-60.88-15.14-116.37-18.25-144.77,2.9.26,5.59.39,8,.39,24.47,0,43.18-11.35,48.77-29.67,4.72-15.46-1.69-31.88-16.37-41.75-6.54-4.37-21.27-17.15-41.58-35.9,98.62-25,167.61-61.72,201.52-90.39,29.71-25.12,55.91-26.2,56.61-26.25a28.22,28.22,0,0,0,20.18-47.9c36.16-16.67,54.35-48.59,55.35-50.41a28.24,28.24,0,0,0,1.21-25.33,27.94,27.94,0,0,0-19.66-15.86c-1.86-.43-46.3-11.78-83.55-76.35-13.9-24.12-52.36-83.63-121.48-140.5,37.16-120.92-48.89-216.41-52.75-220.66A28.29,28.29,0,0,0,1211,49.2a31.21,31.21,0,0,0-4.42.34c-79.65,12.56-123.56,73.24-146,120a565.56,565.56,0,0,0-120.79-12.86c-6.62,0-13.38.08-20,.3-59.33,2-110.31,7-154.92,15.29-22.26-47.6-66.31-109.92-147.34-122.7a31.08,31.08,0,0,0-4.37-.34,28.17,28.17,0,0,0-20.75,9.09c-4,4.38-94.11,104.38-50,229.24-22.87,26.72-40.19,55.31-53.18,78.22C431.83,466.7,335.21,512.22,334.3,512.65a28.15,28.15,0,0,0-9.66,44c14.07,16.46,29.4,26.51,43.78,32.57a28.34,28.34,0,0,0,25.86,40.1c1,0,2,0,3-.13,12.47,0,45.78,17,78,33.48,54.09,27.59,125.21,63.88,215.33,89.26-8.14,7.45-15.33,13.17-21.26,16.85-21.87,13.6-25.38,33.39-21.4,47.38,4.85,17,20.83,29.19,41.28,32.44-13.73,124.6-.65,281.25,3.94,336.17.56,6.93,1,12.08,1.21,15.2,1,15.2-3.16,20.83-4.16,21.91a28.19,28.19,0,0,0,4.9,50.33,127.53,127.53,0,0,0,41.27,7.36,99.42,99.42,0,0,0,12-.73c30.66-3.86,41.53-28.5,48-43.23.6-1.34,1.17-2.68,1.77-4,18.5-4.2,72.11-8.23,147-8.23,42.79,0,73.32,1.39,84.58,2.73,16.2,1.9,53.14,5.38,59.46,15,4,6.24,2.43,16.62,10.79,23.81,14.51,12.61,37.73,12.16,53.59,11,26-1.89,46.64-6,53.39-19,5-9.67.28-23.53-4.88-28.63-11.31-11.18-18.51-17.89-14.66-21.6a26.19,26.19,0,0,1,14.39-7.14C1201.8,1161.82,1197.41,1075.65,1193.7,1003.64Zm199.86-435.42,38.89,38.89s-35.9,0-74.79,32.91c-26.86,22.7-103.47,69.56-239.68,95.55.3.82,66.7,65.22,82.16,75.66,19.19,12.9-14.68,34.9-60.72,4.54,24.12,96.62,26.3,146.44,29.5,185.18,3.3,40.09,6.88,129.73,8.79,174.12,2,19.73-19.7,12-15.89,38.71,1.11,7.81,8.17,9.26,17.87,14.51,17.24,9.34,7.62,25.13-5.39,27.6-19.85,3.77-38.17,2-50.44-3s-11.9-22.11-21.76-32.93c-8.33-9.13-28.48-16.22-51.74-18.45-42.37-4.06-263.22-8.43-273.18,9.16s-10.65,44.73-30.57,47.24-34.61.56-43.54-5.14c-14.88-14.71,21.92-17,19.45-54.66-1.95-29.67-23.95-241.84-.34-382.12-31.71,15.72-64-7.06-37.94-23.26,20-12.47,44.74-38.33,60.72-56.26-188.27-41-305.38-140.1-351-135.3l32.88-32.87c-1.95.48-45.65,11-80.73-30,0,0,104.72-47.9,167.6-158.64,18.15-32,37.08-61,61.37-86.23-52.66-117.46,38.07-216,38.07-216,80.82,12.78,119.19,85.8,134.7,127.11,46.64-10.43,103.16-17.06,172.89-19.35,57.64-1.91,109.66,4.85,156.3,17.41,16-41.67,54.48-112.61,134-125.17,0,0,88.13,95.85,40.15,211.09,66.78,50.89,109.57,108.93,130.45,145,44.86,77.82,101.73,89.78,101.73,89.78S1453.41,577.18,1393.56,568.22Z"/>
  <path class="cls-3"
        d="M1067.91,1116.68c0,50.24-241.06,70.34-256,20.1s-10-329,124.25-326.51C1043.1,812.26,1067.91,1066.49,1067.91,1116.68Z"/>
  <path class="cls-3"
        d="M1151.11,337.77C884.72,364.71,1058.3,646,1190,616.12S1347.91,317.85,1151.11,337.77Zm-3,209.49A41.91,41.91,0,1,1,1190,505.38,41.89,41.89,0,0,1,1148.08,547.26Z"/>
  <path class="cls-3"
        d="M711.13,212.08S642.31,230,618.36,262.93c0,0-47.85-77.78,15-140.67C633.35,122.26,687.22,140.23,711.13,212.08Z"/>
  <path class="cls-3"
        d="M1208.45,262.93c-24-32.92-92.77-50.85-92.77-50.85,24-71.85,77.83-89.82,77.83-89.82C1256.35,185.15,1208.45,262.93,1208.45,262.93Z"/>
  <path class="cls-3"
        d="M953.58,508.36c-68.86-9-125.73,41.88-104.77,119.71S956.57,735.83,1004.47,676,1031.23,518.5,953.58,508.36Zm-47.9,56.87c-32.92-50.89,74.84-47.9,74.84-15C980.52,574.37,938.59,616.12,905.68,565.23Z"/>
  <path class="cls-3"
        d="M713.12,337.77c-196.84-19.92-170.59,248.38-38.93,278.35S979.48,364.71,713.12,337.77Zm3,209.49A41.9,41.9,0,1,1,758,505.38,41.91,41.91,0,0,1,716.11,547.26Z"/>
  <path class="cls-3"
        d="M1542.56,803.51l-.08-2.82c-.13-3.09-.31-6.11-.52-9.1l-.17-2.74c-.36-4.22-.71-7.86-1.15-11.11l-.19-1.52c-.44-3.28-1-6.6-1.6-10.15-.16-.84-.59-3-.59-3-.72-3.71-1.41-6.69-2.1-9.45-.14-.56-.3-1.12-.52-1.81a146,146,0,0,0-5-15.36l-.38-1c-.5-1.29-1-2.61-1.57-3.87-.82-1.86-1.72-3.67-2.62-5.42l-.16-.32c-1-1.9-2-3.73-3-5.52s-2-3.31-3.06-4.89c-1.63-2.37-3.28-4.47-4.55-6l-.41-.52c-.79-1-1.59-2-2.49-3a72.77,72.77,0,0,0-8.66-8,33.14,33.14,0,0,0-3.07-2.13,62.81,62.81,0,0,0-7.7-4.67c-1.29-.67-2.63-1.27-4-1.85a64.07,64.07,0,0,0-8.49-2.88l-.44-.12c-1.16-.32-2.28-.65-3.47-.88a68.13,68.13,0,0,0-12.93-1.41c-4,0-7.77.08-11.45.38-1.3.09-2.54.24-3.76.41l-2.17.25c-1.66.19-3.36.35-4.94.62l-.37.06c-1.37.25-2.71.54-4,.84l-2,.45c-1.36.27-2.69.54-4,.91-1.55.44-3.06,1-4.56,1.45l-1.62.57c-1.22.38-2.43.77-3.56,1.24-1.68.67-3.27,1.41-4.87,2.16l-1.18.59c-1,.46-2.08,1-3.06,1.47-1.78.94-3.42,2-5.07,3l-.72.47c-.91.54-1.77,1.07-2.61,1.66-2,1.39-3.63,2.75-5,3.84l-.42.36a26,26,0,0,0-2.21,1.81c-2,1.71-3.55,3.38-5,4.89-.61.59-1.2,1.21-1.78,1.82-1.74,1.93-3.26,3.87-4.54,5.47-.51.6-1,1.25-1.47,1.88-1.54,2.06-2.88,4.1-4.13,6-.38.56-.77,1.14-1.12,1.72-1.28,2.12-2.52,4.35-3.71,6.63-.33.51-.59,1-.9,1.58-1.16,2.31-2.26,4.68-3.36,7.12-.22.45-.41.93-.64,1.42-1.06,2.47-2.09,5.07-3,7.66a11.17,11.17,0,0,0-.45,1.15c-1,2.69-1.92,5.46-2.82,8.2l-.3.92c-.91,2.88-1.77,5.84-2.58,8.75,0,.14-.15.51-.2.65-.87,3.13-1.69,6.32-2.5,9.6a9.53,9.53,0,0,0-.2,1c-4.14,17-7.44,35.73-10.93,55.5-1.93,10.92-4,22.26-6.18,33.85-6.81,35.35-14,62.56-23.23,88.17l-.74,2.07c-.62,1.76-1.26,3.51-1.91,5.28A229.63,229.63,0,0,1,1284,1023.1c-3.85,5.21-8,10.31-12.16,15a3.62,3.62,0,0,1-.38.41c-3.91,4.39-8.12,8.76-12.59,13l-.53.55c-4.07,3.82-8.39,7.58-12.84,11.16l-.7.57c-4.44,3.51-8.9,6.82-13.32,9.83a225.8,225.8,0,0,1-39.77,21.63c-4.23,1.76-8.28,3.31-12.06,4.62l10.76,101.59q12.6-1.46,21.64-3.1l5.21-.91a528.67,528.67,0,0,0,73.7-20.18c.43-.11.82-.25,1.24-.39,8.35-2.91,17.5-6.31,28-10.43,4.2-1.67,8.49-3.39,12.87-5.2,3.2-1.31,6.45-2.64,9.77-4.06,9.62-4.09,17.81-7.71,25.73-11.37,4.41-2.06,8.91-4.4,13.62-7.13,34.56-19.45,65.4-50.29,91.58-91.69a406.1,406.1,0,0,0,25.67-47.35l.77-1.72c3.13-6.82,6.14-13.91,9.27-21.75,0,0,1.16-3,1.51-3.79,3.32-8.53,6.14-16.45,8.66-24.19,14.54-44.55,22.71-91.75,23-133a7.15,7.15,0,0,0,0-.8C1542.75,810.73,1542.7,807.08,1542.56,803.51Zm-329.69,371.61c.15-24.09-6.79-44.73-12.57-59.41A247.24,247.24,0,0,0,1244,1092a150.08,150.08,0,0,1,26.06,32.4c.52.87,1,1.74,1.53,2.6s1,1.74,1.46,2.59q1.26,2.2,2.35,4.39a2.51,2.51,0,0,1,.21.45c.77,1.38,1.44,2.79,2.08,4.16a.74.74,0,0,1,.12.26c.59,1.18,1.13,2.32,1.62,3.48.81,1.76,1.53,3.47,2.24,5.14.4.9.77,1.8,1.09,2.68.54,1.32,1,2.58,1.47,3.85.25.65.47,1.31.72,2h0c-28.74,10-52.2,16.29-72,20ZM1381.8,1113c-18.27-38.84-56.17-64.06-79.92-76.7a252,252,0,0,0,33-60.4c1-2.6,1.9-5.17,2.83-7.76,24,2.58,46.82,12.69,66.87,25.5s37.39,28.24,50.46,41.51C1435,1066.91,1410.5,1094.25,1381.8,1113Zm138.4-285.76c-1.56,35.45-8.83,75.1-21.58,114.07-2.06-2.5-4.21-4.92-6.48-7.26-1.14-1.17-2.28-2.3-3.45-3.44s-2.38-2.23-3.61-3.31c-2.45-2.13-5-4.21-7.55-6.21q-1.92-1.49-4-2.94c-1.31-1-2.69-1.92-4.06-2.85a203.09,203.09,0,0,0-35.23-18.59q-4.59-1.9-9.24-3.64c-21.75-8.12-44-13.21-63.11-16.47,6.37-33,10.75-63.46,17-89.28,2.71-.38,5.41-.67,8.09-.9l2-.16c2-.14,4-.25,6-.32,2.37-.09,4.72-.12,7.06-.11l2.43,0c.79,0,1.57,0,2.36.06l.55,0c.75,0,1.48,0,2.21.1s1.65.08,2.47.15c3.4.22,6.76.55,10.09,1h0c1.42.17,2.84.37,4.25.59l2.13.33q3.18.52,6.28,1.15h0q4.15.82,8.23,1.85l2,.51c1.34.34,2.68.71,4,1.09.68.19,1.35.39,2,.57,2,.58,4,1.21,5.9,1.85l2,.64h0c1.28.44,2.56.88,3.83,1.35h0c1.27.45,2.53.92,3.79,1.4a238.74,238.74,0,0,1,35.24,17c1.88,1.1,3.72,2.21,5.54,3.34s3.6,2.25,5.35,3.39l0,0,2.95,1.94.09.06q2.18,1.45,4.26,2.91Z"/>
</svg>